<svg width="60" height="60" fill="none" xmlns="http://www.w3.org/2000/svg"><circle cx="30" cy="30" r="29.75" fill="#fff" stroke="#D0D0D0" stroke-width=".5"/><path fill-rule="evenodd" clip-rule="evenodd" d="M48.969 28.864c-.136 10.681-8.372 19.264-18.485 19.264-10.112 0-18.348-8.583-18.484-19.264 0-.431.017-.863.042-1.286L23.233 34.3l23.7-14.235a19.84 19.84 0 0 1 2.036 8.8zm-25.736.537l-10.416-6.254a17.69 17.69 0 0 0-.5 2.123l10.916 6.554 22.683-13.619a18.553 18.553 0 0 0-1.209-1.7L23.233 29.401zM43.306 14.92c-.517-.515-1.06-1-1.626-1.454L23.233 24.548l-8.806-5.294a19.3 19.3 0 0 0-.9 1.885l9.706 5.831 20.073-12.05zm-20.073 7.32l16.58-9.954a17.565 17.565 0 0 0-2.16-1.128l-14.42 8.65-6.421-3.849c-.458.525-.89 1.075-1.293 1.648l7.714 4.633z" fill="#299D37"/></svg>