<svg width="60" height="60" viewBox="0 0 60 60" fill="none" xmlns="http://www.w3.org/2000/svg">
<circle cx="30" cy="30" r="29.75" fill="white" stroke="#D0D0D0" stroke-width="0.5"/>
<path fill-rule="evenodd" clip-rule="evenodd" d="M48.9688 28.8642C48.8329 39.5452 40.5971 48.1284 30.4844 48.1284C20.3717 48.1284 12.1358 39.5452 12 28.8642C12 28.4326 12.0167 28.0009 12.0417 27.5781L23.2332 34.2993L46.9339 20.0642C48.2749 22.781 48.9731 25.8003 48.9688 28.8642ZM23.2332 29.4015L12.8173 23.1473C12.6075 23.8428 12.4403 24.5519 12.3169 25.2702L23.2332 31.824L45.9165 18.2055C45.5445 17.6149 45.1407 17.0473 44.7073 16.5054L23.2332 29.4015ZM43.3063 14.9198C42.7894 14.4047 42.2466 13.9195 41.6801 13.4664L23.2332 24.5479L14.4268 19.2538C14.0935 19.8639 13.7928 20.4932 13.5261 21.1389L23.2332 26.9703L43.3063 14.9198ZM23.2332 22.24L39.8121 12.286C39.1168 11.8594 38.3952 11.4827 37.6521 11.1584L23.2332 19.8087L16.8119 15.9593C16.3542 16.4842 15.9227 17.0341 15.5192 17.6065L23.2332 22.24Z" fill="#299D37"/>
</svg>
